{"title":"The Mortal Instruments City of Bones 2013 CAM READNFO XViD-VAiN ","uid":8863825,"size":1511129441,"categoryP":"video","categoryS":"movies","magnet":"?xt=urn:btih:354d3f52c9bff2f427399bec737261c83e08c49f&amp;dn=The+Mortal+Instruments+City+of+Bones+2013+CAM+READNFO+XViD-VAiN+&amp;tr=udp%3A%2F%2Ftracker.openbittorrent.com%3A80&amp;tr=udp%3A%2F%2Fopen.demonii.com%3A1337&amp;tr=udp%3A%2F%2Ftracker.coppersurfer.tk%3A6969&amp;tr=udp%3A%2F%2Fexodus.desync.com%3A6969","seeders":9,"leechers":1,"uploader":"srkfan","files":3,"time":1377844974,"description":" &lt;a href=&quot;http://i.imgur.com/5yRN1Se.jpg&quot; rel=&quot;nofollow&quot; target=&quot;_NEW&quot;&gt;http://i.imgur.com/5yRN1Se.jpg&lt;/a&gt;\n\nhe Mortal Instruments: City of Bones 2013 CAM READNFO XViD - VAiN\n\niMDB........: http://www.imdb.com/title/tt1538403/\nPLOT........: When her mother disappears, Clary Fray learns that she descends from a \nline of warriors who protect our world from demons. She joins forces with others \nlike her and heads into a dangerous alternate New York called Downworld. \n\n\nT E C H N i C A L . i N F O . . .      \nGeneral\nComplete name                            : The Mortal Instruments City of Bones 2013 CAM READNFO XViD - VAiNThe Mortal Instruments City of Bones 2013 CAM READNFO XViD - VAiN.avi\nFormat                                   : AVI\nFormat/Info                              : Audio Video Interleave\nFile size                                : 1.38 GiB\nDuration                                 : 2h 1mn\nOverall bit rate                         : 1 629 Kbps\nWriting application                      : VirtualDubMod 1.5.10.2 (build 2540/release)\nWriting library                          : VirtualDubMod build 2540/release\n\nVideo\nID                                       : 0\nFormat                                   : MPEG-4 Visual\nFormat profile                           : Advanced Simple@L5\nFormat settings, BVOP                    : 2\nFormat settings, QPel                    : No\nFormat settings, GMC                     : No warppoints\nFormat settings, Matrix                  : Default (MPEG)\nMuxing mode                              : Packed bitstream\nCodec ID                                 : XVID\nCodec ID/Hint                            : XviD\nDuration                                 : 2h 1mn\nBit rate                                 : 1 489 Kbps\nWidth                                    : 720 pixels\nHeight                                   : 304 pixels\nDisplay aspect ratio                     : 2.35:1\nOriginal display aspect ratio            : 2.35:1\nFrame rate                               : 29.017 fps\nOriginal frame rate                      : 29.023 fps\nColor space                              : YUV\nChroma subsampling                       : 4:2:0\nBit depth                                : 8 bits\nScan type                                : Progressive\nCompression mode                         : Lossy\nBits/(Pixel*Frame)                       : 0.234\nStream size                              : 1.27 GiB (91%)\nWriting library                          : XviD 64\n\nAudio\nID                                       : 1\nFormat                                   : MPEG Audio\nFormat version                           : Version 1\nFormat profile                           : Layer 3\nCodec ID                                 : 55\nCodec ID/Hint                            : MP3\nDuration                                 : 2h 1mn\nBit rate mode                            : Constant\nBit rate                                 : 128 Kbps\nChannel(s)                               : 2 channels\nSampling rate                            : 44.1 KHz\nCompression mode                         : Lossy\nStream size                              : 111 MiB (8%)\nAlignment                                : Split accross interleaves\nInterleave, duration                     : 34 ms (1.00 video frame)\nInterleave, preload duration             : 500 ms\n\n\n\n\n\nE N C O D E R S . N O T E S . . .       \nSOURCE......: 720p V2 (thanks bigsmile0.gif )\nSAMPLE......: Yes\n\n\nR E A D . N F O . . . \nHas very bad focus issues these happen often &amp; for different lengths of time.\nSource had a very bad flicker, ive removed most of it but some still remains,\nit is more noticable in some parts than others. \nAlso it is fairly dark, i couldnt make it much brighter without causing pixelation, \nturning blacks grey or making the glares even worse.\nYou have been warned.\ncheck the sample first,\nEnjoy...\n &lt;a href=&quot;\nhttp://i.imgur.com/UKfz7vR.png&quot; rel=&quot;nofollow&quot; target=&quot;_NEW&quot;&gt;\nhttp://i.imgur.com/UKfz7vR.png&lt;/a&gt; &lt;a href=&quot;\nhttp://i.imgur.com/17sV5Rx.png&quot; rel=&quot;nofollow&quot; target=&quot;_NEW&quot;&gt;\nhttp://i.imgur.com/17sV5Rx.png&lt;/a&gt; &lt;a href=&quot;\nhttp://i.imgur.com/xPBAi2A.png&quot; rel=&quot;nofollow&quot; target=&quot;_NEW&quot;&gt;\nhttp://i.imgur.com/xPBAi2A.png&lt;/a&gt; &lt;a href=&quot;\nhttp://i.imgur.com/IX9NH58.png&quot; rel=&quot;nofollow&quot; target=&quot;_NEW&quot;&gt;\nhttp://i.imgur.com/IX9NH58.png&lt;/a&gt; &lt;a href=&quot;\nhttp://i.imgur.com/S3f2jgk.png&quot; rel=&quot;nofollow&quot; target=&quot;_NEW&quot;&gt;\nhttp://i.imgur.com/S3f2jgk.png&lt;/a&gt; &lt;a href=&quot;\nhttp://i.imgur.com/BGUJ576.png&quot; rel=&quot;nofollow&quot; target=&quot;_NEW&quot;&gt;\nhttp://i.imgur.com/BGUJ576.png&lt;/a&gt; &lt;a href=&quot;\nhttp://i.imgur.com/yTXEfrB.png&quot; rel=&quot;nofollow&quot; target=&quot;_NEW&quot;&gt;\nhttp://i.imgur.com/yTXEfrB.png&lt;/a&gt;","torrent":{"xt":"urn:btih:354d3f52c9bff2f427399bec737261c83e08c49f","amp;dn":"The+Mortal+Instruments+City+of+Bones+2013+CAM+READNFO+XViD-VAiN+","amp;tr":["udp%3A%2F%2Ftracker.openbittorrent.com%3A80","udp%3A%2F%2Fopen.demonii.com%3A1337","udp%3A%2F%2Ftracker.coppersurfer.tk%3A6969","udp%3A%2F%2Fexodus.desync.com%3A6969"],"infoHash":"354d3f52c9bff2f427399bec737261c83e08c49f","infoHashBuffer":{"type":"Buffer","data":[53,77,63,82,201,191,242,244,39,57,155,236,115,114,97,200,62,8,196,159]},"announce":[],"urlList":[]}}